<svg width="150" height="114" viewBox="0 0 150 114" fill="none" xmlns="http://www.w3.org/2000/svg">
<path d="M146.313 82.1237C144.854 82.1237 143.671 80.9376 143.671 79.4732V14.5373C143.665 9.98511 139.986 6.30093 135.448 6.30093H67.1319C62.5942 6.30093 58.9151 9.98511 58.9019 14.5373V79.4732C58.9019 80.9376 57.7196 82.1237 56.2598 82.1237C54.8001 82.1237 53.6178 80.9376 53.6178 79.4732V14.5373C53.631 7.06307 59.6746 1 67.1319 1H135.448C142.898 1 148.942 7.05629 148.955 14.5307V79.4666C148.955 80.169 148.678 80.8448 148.183 81.3485C147.687 81.8454 147.014 82.1237 146.313 82.1237Z" fill="white" stroke="white"/>
<path d="M139.555 100.571H117.098C115.658 100.571 114.489 99.4179 114.456 97.9735C114.311 92.7323 110.03 88.5577 104.799 88.5577C99.5681 88.5577 95.2879 92.7321 95.1426 97.9735C95.1096 99.418 93.9405 100.571 92.5006 100.571H56.2576C54.7979 100.571 53.6156 99.3848 53.6156 97.9204V79.4732C53.6156 78.0088 54.7979 76.8228 56.2576 76.8228H146.312C147.012 76.8228 147.686 77.1011 148.181 77.598C148.677 78.095 148.954 78.7708 148.954 79.4733V91.1485C148.948 96.3501 144.74 100.564 139.555 100.571ZM119.475 95.27H139.555C141.827 95.27 143.663 93.428 143.67 91.1485V82.1237H58.8995V95.27H90.1425C91.5361 88.2529 97.6722 83.2037 104.806 83.2037C111.939 83.2037 118.076 88.2529 119.469 95.27H119.475Z" fill="white" stroke="white"/>
<path d="M56.2591 100.571H42.2563C40.7966 100.571 39.6143 99.3849 39.6143 97.9205C39.6143 96.4561 40.7966 95.27 42.2563 95.27H56.2591C57.7188 95.27 58.9011 96.4561 58.9011 97.9205C58.9011 99.3849 57.7188 100.571 56.2591 100.571Z" fill="white" stroke="white"/>
<path d="M17.6911 100.571H10.7491C5.37252 100.564 1.00659 96.1976 1 90.7972V73.2321C1 68.3817 2.26157 63.6109 4.6527 59.3968L16.1325 39.0412C18.9661 34.0385 24.2568 30.9441 29.99 30.9375H56.2582C57.718 30.9375 58.9003 32.1236 58.9003 33.588C58.9003 35.0523 57.718 36.2384 56.2582 36.2384H29.99C26.159 36.2451 22.6252 38.3125 20.7295 41.652L9.24978 62.0075C7.30794 65.4266 6.28409 69.2964 6.28409 73.2323V90.7856C6.2907 93.2571 8.28545 95.2582 10.7491 95.2582H17.6911C19.1509 95.2582 20.3332 96.4443 20.3332 97.9086C20.3332 99.373 19.1509 100.559 17.6911 100.559V100.571Z" fill="white" stroke="white"/>
<path d="M27.6252 68.4143H4.77083C3.3111 68.4143 2.12878 67.2282 2.12878 65.7638C2.12878 64.2994 3.3111 63.1133 4.77083 63.1133H27.6252C30.4125 63.1133 32.6781 60.8472 32.6847 58.0443V33.6007C32.6847 32.1363 33.867 30.9502 35.3267 30.9502C36.7865 30.9502 37.9688 32.1363 37.9688 33.6007V58.0443C37.9622 63.7693 33.332 68.4076 27.6252 68.4143Z" fill="white" stroke="white"/>
<path d="M29.9705 113.136C23.9401 113.129 18.5041 109.478 16.1989 103.886C13.8937 98.2931 15.1751 91.8592 19.4421 87.5852C23.7089 83.3048 30.1291 82.0326 35.6973 84.345C41.272 86.6641 44.9048 92.1174 44.9048 98.1737C44.8916 106.437 38.2071 113.129 29.9705 113.136ZM29.9705 88.5055C26.0735 88.5121 22.5662 90.871 21.0801 94.4822C19.5939 98.0935 20.4261 102.248 23.1805 105.011C25.9348 107.768 30.0762 108.596 33.676 107.098C37.2758 105.601 39.6205 102.076 39.6205 98.173C39.6073 92.8324 35.2942 88.5121 29.9705 88.5055Z" fill="white" stroke="white"/>
<path d="M29.9705 105.906C26.8528 105.899 24.0457 104.017 22.8502 101.128C21.6613 98.2393 22.3218 94.9129 24.5279 92.6997C26.734 90.4866 30.0498 89.8306 32.9297 91.0233C35.8095 92.2227 37.6854 95.0454 37.6854 98.1729C37.6788 102.44 34.2307 105.899 29.9705 105.906ZM29.9705 95.7346C28.9929 95.7412 28.1078 96.3309 27.7314 97.2453C27.3615 98.1531 27.5662 99.2 28.2598 99.8958C28.9599 100.585 29.9968 100.797 30.9084 100.419C31.8133 100.042 32.4012 99.1537 32.4012 98.173C32.4012 96.8279 31.3113 95.7346 29.9705 95.7346Z" fill="white"/>
<path d="M29.9705 95.7412V95.7346M29.9705 95.7346C28.9929 95.7412 28.1078 96.3309 27.7314 97.2453C27.3615 98.1531 27.5662 99.2 28.2598 99.8958C28.9599 100.585 29.9968 100.797 30.9084 100.419C31.8133 100.042 32.4012 99.1537 32.4012 98.173C32.4012 96.8279 31.3113 95.7346 29.9705 95.7346ZM29.9705 105.906C26.8528 105.899 24.0457 104.017 22.8502 101.128C21.6613 98.2393 22.3218 94.9129 24.5279 92.6997C26.734 90.4866 30.0498 89.8306 32.9297 91.0233C35.8095 92.2227 37.6854 95.0454 37.6854 98.1729C37.6788 102.44 34.2307 105.899 29.9705 105.906Z" stroke="white"/>
<path d="M104.807 113.135C96.5636 113.129 89.8793 106.43 89.8661 98.1603C89.8529 96.6694 91.022 95.4435 92.5081 95.3906C93.1951 95.3641 93.8622 95.6159 94.3642 96.0929C94.8596 96.57 95.1436 97.2326 95.1502 97.9217C95.0842 100.512 96.0617 103.017 97.8518 104.879C99.6484 106.741 102.105 107.808 104.688 107.835C107.264 107.868 109.754 106.867 111.59 105.045C113.427 103.229 114.464 100.751 114.464 98.1604C114.457 96.6761 115.626 95.4502 117.106 95.3907C117.793 95.3642 118.466 95.616 118.962 96.093C119.457 96.5701 119.741 97.2327 119.748 97.9218V98.1603C119.735 106.43 113.05 113.129 104.807 113.135Z" fill="white" stroke="white"/>
<path d="M104.807 105.906C101.689 105.899 98.882 104.017 97.6865 101.128C96.4976 98.2393 97.1581 94.9129 99.3642 92.6997C101.57 90.4866 104.886 89.8306 107.766 91.0233C110.646 92.2227 112.522 95.0454 112.522 98.1729C112.515 102.44 109.067 105.899 104.807 105.906ZM104.807 95.7346C103.829 95.7412 102.944 96.3309 102.568 97.2453C102.198 98.1531 102.403 99.2 103.096 99.8958C103.796 100.585 104.833 100.797 105.745 100.419C106.65 100.042 107.237 99.1537 107.237 98.173C107.237 96.8279 106.148 95.7346 104.807 95.7346Z" fill="white"/>
<path d="M104.807 95.7412V95.7346M104.807 95.7346C103.829 95.7412 102.944 96.3309 102.568 97.2453C102.198 98.1531 102.403 99.2 103.096 99.8958C103.796 100.585 104.833 100.797 105.745 100.419C106.65 100.042 107.237 99.1537 107.237 98.173C107.237 96.8279 106.148 95.7346 104.807 95.7346ZM104.807 105.906C101.689 105.899 98.882 104.017 97.6865 101.128C96.4976 98.2393 97.1581 94.9129 99.3642 92.6997C101.57 90.4866 104.886 89.8306 107.766 91.0233C110.646 92.2227 112.522 95.0454 112.522 98.1729C112.515 102.44 109.067 105.899 104.807 105.906Z" stroke="white"/>
<path d="M101.286 71.3779C100.454 71.3779 99.6746 70.987 99.1726 70.3178C97.2042 67.6673 79.9182 44.0778 79.9182 33.1909C79.9182 21.3499 89.4891 11.748 101.293 11.748C113.097 11.748 122.668 21.3494 122.668 33.1909C122.668 44.091 105.388 67.6665 103.413 70.3178C102.911 70.987 102.125 71.3846 101.286 71.3779ZM101.286 17.0693C92.4155 17.0693 85.216 24.2786 85.2028 33.1841C85.2028 40.0156 95.401 55.8721 101.293 64.2077C107.185 55.8653 117.383 40.0083 117.383 33.1841H117.376C117.363 24.2786 110.17 17.0561 101.286 17.0561L101.286 17.0693ZM101.286 41.8437C97.0062 41.8371 93.1487 39.2464 91.5173 35.2772C89.8793 31.3082 90.7842 26.7428 93.816 23.708C96.8478 20.6731 101.399 19.7654 105.355 21.4086C109.305 23.0585 111.888 26.9282 111.888 31.222C111.868 37.0795 107.132 41.8239 101.286 41.8305L101.286 41.8437ZM101.286 25.9013C99.1462 25.9079 97.2108 27.2066 96.3985 29.1945C95.5794 31.1823 96.0352 33.4683 97.5544 34.9858C99.0669 36.5032 101.352 36.9604 103.327 36.1387C105.309 35.3105 106.603 33.3756 106.603 31.2222C106.603 28.2801 104.226 25.8882 101.286 25.8882L101.286 25.9013Z" fill="white" stroke="white"/>
<path d="M46.8069 78.3205H40.3273C38.8676 78.3205 37.6853 77.1344 37.6853 75.67C37.6853 74.2056 38.8676 73.0195 40.3273 73.0195H46.8135H46.8069C48.2666 73.0195 49.4489 74.2056 49.4489 75.67C49.4489 77.1344 48.2666 78.3205 46.8069 78.3205Z" fill="white" stroke="white"/>
</svg>
