<svg width="120" height="56" viewBox="0 0 120 56" fill="none" xmlns="http://www.w3.org/2000/svg">
<path d="M17.9749 21.4026L1.35503 0.0691666H12.0847L23.561 14.9943L28.7322 8.93764H39.9017L28.7322 21.3194L46.2138 43.4296H36.2353L23.1738 27.8387L10.5914 43.4296H0L17.9749 21.4026Z" fill="url(#paint0_linear_249_5533)"/>
<path d="M79.8191 0L95.5265 15.8128L111.234 0H120V43.3605H111.234V12.1787L95.5265 27.3534L79.8192 12.1787L79.8191 0Z" fill="url(#paint1_linear_249_5533)"/>
<path d="M62.4318 0H79.8203L79.9059 12.262L62.7572 5.49044L62.4318 0Z" fill="url(#paint2_linear_249_5533)"/>
<path d="M40.6889 0H63.7798C66.6004 0 69.0524 0.30516 71.1356 0.91548C73.2373 1.50731 74.9795 2.33031 76.3622 3.3845C77.7449 4.43869 78.7681 5.69632 79.4318 7.15739C80.1139 8.59996 80.4549 10.1628 80.4549 11.8458C80.4549 14.6014 79.5885 17.015 77.8555 19.0864C79.8466 20.27 81.3307 21.8051 82.3077 23.6915C83.2848 25.578 83.7734 27.7233 83.7734 30.1276C83.7734 32.1435 83.4323 33.9652 82.7502 35.5927C82.0865 37.2203 81.0633 38.6166 79.6806 39.7818C78.3164 40.9284 76.5834 41.8162 74.4817 42.445C72.3985 43.0553 69.9373 43.3605 67.0982 43.3605H40.6889V0ZM67.1535 16.6451C67.9094 16.6451 68.6468 16.6728 69.3658 16.7283C70.601 15.5447 71.2186 14.1946 71.2186 12.678C71.2186 11.106 70.601 9.89458 69.3658 9.04383C68.149 8.17459 66.3608 7.73997 64.001 7.73997H49.4551V16.6451H67.1535ZM67.3194 35.7037C69.6792 35.7037 71.4675 35.1951 72.6843 34.1779C73.9195 33.1607 74.537 31.7274 74.537 29.8779C74.537 28.0285 73.9195 26.5859 72.6843 25.5502C71.4675 24.5145 69.6792 23.9967 67.3194 23.9967H49.4551V35.7037H67.3194Z" fill="url(#paint3_linear_249_5533)"/>
<path d="M35.0254 0H55.7915V7.73829H29.0922L35.0254 0Z" fill="url(#paint4_linear_249_5533)"/>
<path d="M67.318 5.10989L58.4884 0L72.3774 4.59933L67.318 5.10989Z" fill="url(#paint5_linear_249_5533)"/>
<path d="M0.322759 51.2581V50.5635H4.44835V51.2581H2.7851V55.9112H1.98341V51.2581H0.322759Z" fill="#1B1B1B"/>
<path d="M11.0406 55.9112V50.5635H14.3827V51.2581H11.8449V52.8875H14.2083V53.5794H11.8449V55.2166H14.4139V55.9112H11.0406Z" fill="#1B1B1B"/>
<path d="M25.5651 52.3026H24.753C24.7218 52.1285 24.6636 51.9753 24.5786 51.843C24.4936 51.7107 24.3895 51.5984 24.2663 51.5061C24.1431 51.4139 24.0051 51.3443 23.8524 51.2973C23.7014 51.2503 23.5409 51.2268 23.3709 51.2268C23.0637 51.2268 22.7887 51.3042 22.5457 51.4591C22.3045 51.6141 22.1137 51.8412 21.9731 52.1407C21.8343 52.4401 21.7649 52.8056 21.7649 53.2374C21.7649 53.6726 21.8343 54.0399 21.9731 54.3393C22.1137 54.6387 22.3054 54.865 22.5484 55.0182C22.7913 55.1714 23.0646 55.248 23.3683 55.248C23.5366 55.248 23.6962 55.2253 23.8472 55.1801C23.9999 55.1331 24.1379 55.0643 24.2611 54.9738C24.3843 54.8833 24.4884 54.7727 24.5734 54.6422C24.6602 54.5099 24.72 54.3584 24.753 54.1878L25.5651 54.1904C25.5217 54.4533 25.4376 54.6953 25.3126 54.9164C25.1894 55.1357 25.0306 55.3254 24.8363 55.4856C24.6437 55.644 24.4233 55.7667 24.1752 55.8538C23.927 55.9408 23.6563 55.9843 23.3631 55.9843C22.9015 55.9843 22.4902 55.8747 22.1293 55.6553C21.7684 55.4342 21.4838 55.1183 21.2755 54.7075C21.069 54.2966 20.9658 53.8066 20.9658 53.2374C20.9658 52.6664 21.0699 52.1764 21.2781 51.7673C21.4864 51.3564 21.771 51.0414 22.1319 50.822C22.4928 50.6009 22.9032 50.4904 23.3631 50.4904C23.6459 50.4904 23.9097 50.5313 24.1543 50.6131C24.4007 50.6932 24.622 50.8116 24.8181 50.9682C25.0142 51.1232 25.1764 51.3129 25.3048 51.5375C25.4332 51.7603 25.52 52.0153 25.5651 52.3026Z" fill="#1B1B1B"/>
<path d="M32.2081 55.9112V50.5635H33.0124V52.8875H35.6699V50.5635H36.4768V55.9112H35.6699V53.5794H33.0124V55.9112H32.2081Z" fill="#1B1B1B"/>
<path d="M47.6313 50.5635V55.9112H46.892L44.1824 51.9892H44.133V55.9112H43.3287V50.5635H44.0731L46.7853 54.4907H46.8348V50.5635H47.6313Z" fill="#1B1B1B"/>
<path d="M59.1156 53.2374C59.1156 53.8083 59.0115 54.2992 58.8033 54.7101C58.5951 55.1192 58.3096 55.4342 57.9469 55.6553C57.586 55.8747 57.1756 55.9843 56.7158 55.9843C56.2542 55.9843 55.8421 55.8747 55.4794 55.6553C55.1185 55.4342 54.8339 55.1183 54.6256 54.7075C54.4174 54.2966 54.3133 53.8066 54.3133 53.2374C54.3133 52.6664 54.4174 52.1764 54.6256 51.7673C54.8339 51.3564 55.1185 51.0414 55.4794 50.822C55.8421 50.6009 56.2542 50.4904 56.7158 50.4904C57.1756 50.4904 57.586 50.6009 57.9469 50.822C58.3096 51.0414 58.5951 51.3564 58.8033 51.7673C59.0115 52.1764 59.1156 52.6664 59.1156 53.2374ZM58.3191 53.2374C58.3191 52.8022 58.2489 52.4357 58.1083 52.1381C57.9695 51.8386 57.7786 51.6123 57.5357 51.4591C57.2945 51.3042 57.0212 51.2268 56.7158 51.2268C56.4086 51.2268 56.1344 51.3042 55.8932 51.4591C55.652 51.6123 55.4612 51.8386 55.3206 52.1381C55.1818 52.4357 55.1124 52.8022 55.1124 53.2374C55.1124 53.6726 55.1818 54.0399 55.3206 54.3393C55.4612 54.637 55.652 54.8633 55.8932 55.0182C56.1344 55.1714 56.4086 55.248 56.7158 55.248C57.0212 55.248 57.2945 55.1714 57.5357 55.0182C57.7786 54.8633 57.9695 54.637 58.1083 54.3393C58.2489 54.0399 58.3191 53.6726 58.3191 53.2374Z" fill="#1B1B1B"/>
<path d="M65.799 55.9112V50.5635H66.6032V55.2166H69.0187V55.9112H65.799Z" fill="#1B1B1B"/>
<path d="M80.0398 53.2374C80.0398 53.8083 79.9357 54.2992 79.7274 54.7101C79.5192 55.1192 79.2337 55.4342 78.8711 55.6553C78.5101 55.8747 78.0997 55.9843 77.6399 55.9843C77.1783 55.9843 76.7662 55.8747 76.4035 55.6553C76.0426 55.4342 75.758 55.1183 75.5498 54.7075C75.3416 54.2966 75.2374 53.8066 75.2374 53.2374C75.2374 52.6664 75.3416 52.1764 75.5498 51.7673C75.758 51.3564 76.0426 51.0414 76.4035 50.822C76.7662 50.6009 77.1783 50.4904 77.6399 50.4904C78.0997 50.4904 78.5101 50.6009 78.8711 50.822C79.2337 51.0414 79.5192 51.3564 79.7274 51.7673C79.9357 52.1764 80.0398 52.6664 80.0398 53.2374ZM79.2433 53.2374C79.2433 52.8022 79.173 52.4357 79.0325 52.1381C78.8936 51.8386 78.7028 51.6123 78.4598 51.4591C78.2186 51.3042 77.9453 51.2268 77.6399 51.2268C77.3328 51.2268 77.0586 51.3042 76.8174 51.4591C76.5762 51.6123 76.3853 51.8386 76.2448 52.1381C76.1059 52.4357 76.0365 52.8022 76.0365 53.2374C76.0365 53.6726 76.1059 54.0399 76.2448 54.3393C76.3853 54.637 76.5762 54.8633 76.8174 55.0182C77.0586 55.1714 77.3328 55.248 77.6399 55.248C77.9453 55.248 78.2186 55.1714 78.4598 55.0182C78.7028 54.8633 78.8936 54.637 79.0325 54.3393C79.173 54.0399 79.2433 53.6726 79.2433 53.2374Z" fill="#1B1B1B"/>
<path d="M90.3307 52.2529C90.2804 52.0945 90.2127 51.9527 90.1277 51.8273C90.0444 51.7002 89.9446 51.5923 89.8283 51.5035C89.7121 51.413 89.5793 51.3443 89.4301 51.2973C89.2826 51.2503 89.1204 51.2268 88.9434 51.2268C88.6432 51.2268 88.3725 51.3042 88.1313 51.4591C87.8901 51.6141 87.6992 51.8412 87.5586 52.1407C87.4198 52.4383 87.3504 52.803 87.3504 53.2348C87.3504 53.6682 87.4207 54.0346 87.5612 54.3341C87.7018 54.6335 87.8944 54.8607 88.1391 55.0156C88.3837 55.1705 88.6622 55.248 88.9746 55.248C89.2644 55.248 89.5169 55.1888 89.732 55.0704C89.949 54.952 90.1164 54.7849 90.2344 54.5691C90.3541 54.3515 90.414 54.0956 90.414 53.8014L90.6222 53.8405H89.0969V53.1747H91.1923V53.7831C91.1923 54.2322 91.0968 54.6222 90.9059 54.9529C90.7168 55.2819 90.4548 55.5361 90.1199 55.7154C89.7867 55.8947 89.4049 55.9843 88.9746 55.9843C88.4922 55.9843 88.0688 55.8729 87.7044 55.6501C87.3417 55.4273 87.0589 55.1113 86.8558 54.7022C86.6528 54.2914 86.5513 53.804 86.5513 53.24C86.5513 52.8135 86.6103 52.4305 86.7283 52.0911C86.8463 51.7516 87.012 51.4635 87.2254 51.2268C87.4406 50.9883 87.6931 50.8064 87.9829 50.681C88.2744 50.5539 88.5928 50.4904 88.9382 50.4904C89.2262 50.4904 89.4943 50.533 89.7424 50.6183C89.9923 50.7036 90.2144 50.8246 90.4088 50.9813C90.6049 51.138 90.7671 51.3242 90.8955 51.5401C91.0239 51.7542 91.1107 51.9918 91.1558 52.2529H90.3307Z" fill="#1B1B1B"/>
<path d="M98.6981 50.5635V55.9112H97.8938V50.5635H98.6981Z" fill="#1B1B1B"/>
<path d="M105.55 55.9112V50.5635H108.892V51.2581H106.354V52.8875H108.718V53.5794H106.354V55.2166H108.923V55.9112H105.55Z" fill="#1B1B1B"/>
<path d="M118.554 51.9683C118.527 51.7211 118.412 51.5296 118.211 51.3939C118.01 51.2563 117.756 51.1876 117.451 51.1876C117.232 51.1876 117.043 51.2224 116.883 51.292C116.724 51.3599 116.6 51.4539 116.511 51.574C116.424 51.6924 116.381 51.8273 116.381 51.9788C116.381 52.1059 116.41 52.2155 116.469 52.3078C116.53 52.4 116.609 52.4775 116.706 52.5402C116.805 52.6011 116.911 52.6525 117.024 52.6942C117.137 52.7343 117.245 52.7673 117.349 52.7935L117.87 52.9292C118.04 52.971 118.214 53.0276 118.393 53.099C118.572 53.1703 118.737 53.2643 118.89 53.381C119.043 53.4976 119.166 53.6421 119.26 53.8144C119.355 53.9868 119.403 54.1931 119.403 54.4333C119.403 54.7362 119.325 55.0051 119.169 55.2401C119.014 55.4751 118.79 55.6605 118.495 55.7963C118.201 55.9321 117.846 56 117.43 56C117.031 56 116.686 55.9365 116.394 55.8094C116.102 55.6823 115.874 55.5021 115.709 55.2689C115.545 55.0339 115.453 54.7553 115.436 54.4333H116.243C116.259 54.6265 116.321 54.7875 116.43 54.9164C116.541 55.0434 116.683 55.1383 116.855 55.201C117.028 55.2619 117.218 55.2924 117.425 55.2924C117.652 55.2924 117.854 55.2567 118.031 55.1853C118.21 55.1122 118.351 55.0112 118.453 54.8824C118.555 54.7519 118.606 54.5995 118.606 54.4255C118.606 54.267 118.561 54.1374 118.471 54.0364C118.383 53.9354 118.262 53.8519 118.109 53.7857C117.958 53.7196 117.787 53.6612 117.597 53.6108L116.967 53.4384C116.54 53.3218 116.201 53.1503 115.952 52.924C115.703 52.6977 115.579 52.3983 115.579 52.0258C115.579 51.7177 115.663 51.4487 115.829 51.2189C115.996 50.9891 116.221 50.8107 116.506 50.6836C116.791 50.5548 117.112 50.4904 117.469 50.4904C117.83 50.4904 118.148 50.5539 118.424 50.681C118.702 50.8081 118.921 50.983 119.08 51.2059C119.24 51.4269 119.323 51.6811 119.33 51.9683H118.554Z" fill="#1B1B1B"/>
<defs>
<linearGradient id="paint0_linear_249_5533" x1="15.5068" y1="15.4926" x2="90.2076" y2="35.3806" gradientUnits="userSpaceOnUse">
<stop stop-color="#E3401F"/>
<stop offset="1" stop-color="#2F5BA1"/>
</linearGradient>
<linearGradient id="paint1_linear_249_5533" x1="15.5068" y1="15.4926" x2="90.2076" y2="35.3806" gradientUnits="userSpaceOnUse">
<stop stop-color="#E3401F"/>
<stop offset="1" stop-color="#2F5BA1"/>
</linearGradient>
<linearGradient id="paint2_linear_249_5533" x1="15.5068" y1="15.4926" x2="90.2076" y2="35.3806" gradientUnits="userSpaceOnUse">
<stop stop-color="#E3401F"/>
<stop offset="1" stop-color="#2F5BA1"/>
</linearGradient>
<linearGradient id="paint3_linear_249_5533" x1="15.5068" y1="15.4926" x2="90.2076" y2="35.3806" gradientUnits="userSpaceOnUse">
<stop stop-color="#E3401F"/>
<stop offset="1" stop-color="#2F5BA1"/>
</linearGradient>
<linearGradient id="paint4_linear_249_5533" x1="15.5068" y1="15.4926" x2="90.2076" y2="35.3806" gradientUnits="userSpaceOnUse">
<stop stop-color="#E3401F"/>
<stop offset="1" stop-color="#2F5BA1"/>
</linearGradient>
<linearGradient id="paint5_linear_249_5533" x1="15.5068" y1="15.4926" x2="90.2076" y2="35.3806" gradientUnits="userSpaceOnUse">
<stop stop-color="#E3401F"/>
<stop offset="1" stop-color="#2F5BA1"/>
</linearGradient>
</defs>
</svg>
