<svg width="119" height="127" viewBox="0 0 119 127" fill="none" xmlns="http://www.w3.org/2000/svg">
<path d="M95.0179 88.75C93.8688 88.75 92.9286 89.6902 92.9286 90.8393V115.911C92.9286 119.358 90.108 122.179 86.6607 122.179H31.2738C33.5093 120.027 35.0554 117.206 35.5359 114.009C36.288 108.953 34.4913 103.981 30.835 100.743L44.29 86.9532C46.0659 85.1355 47.027 82.6284 46.9643 80.0586C46.9016 77.4679 45.8152 75.0861 43.9139 73.3311C40.3204 70.03 34.5121 70.3016 30.9604 73.9579L26.0714 78.9721V11.4464C26.0714 7.99911 28.892 5.17857 32.3393 5.17857H86.6607C90.108 5.17857 92.9286 7.99911 92.9286 11.4464V23.9821C92.9286 25.1313 93.8688 26.0714 95.0179 26.0714C96.167 26.0714 97.1071 25.1313 97.1071 23.9821V11.4464C97.1071 5.68 92.4271 1 86.6607 1H32.3393C26.5729 1 21.8929 5.68 21.8929 11.4464V44.2064L7.62304 64.2009C3.29821 70.2598 1 77.4052 1 84.843V124.268C1 125.417 1.94018 126.357 3.08929 126.357H86.6607C92.4271 126.357 97.1071 121.677 97.1071 115.911V90.8393C97.1071 89.6902 96.167 88.75 95.0179 88.75ZM15.625 122.179H5.17857V84.843C5.17857 78.2827 7.20518 71.973 11.0077 66.6245L21.8929 51.3936V83.2761L13.8491 91.5288C13.0552 92.3645 13.0552 93.6807 13.8909 94.4747C14.7266 95.2686 16.0429 95.2686 16.8368 94.4329L25.4029 85.637C25.4029 85.637 25.4655 85.5743 25.4864 85.5534L33.948 76.862C35.9329 74.8145 39.1295 74.6055 41.0725 76.4023C42.1171 77.3634 42.723 78.7005 42.7648 80.163C42.8066 81.6255 42.2843 83.0045 41.2814 84.0282L26.155 99.5307C25.7163 99.9904 25.5073 100.617 25.57 101.244C25.6327 101.871 26.0088 102.435 26.552 102.769C30.1246 104.942 32.005 109.121 31.3573 113.383C30.6052 118.397 26.1132 122.158 20.9109 122.158H15.5832L15.625 122.179Z" fill="white" stroke="white"/>
<path d="M95.0179 30.2495C82.3359 30.2495 72.0358 40.5497 72.0358 53.2317C72.0358 65.9136 92.7824 83.3174 93.6599 84.0695C94.0568 84.4038 94.5374 84.5709 95.0179 84.5709C95.4984 84.5709 95.979 84.4038 96.3759 84.0695C97.2534 83.3174 118 65.6002 118 53.2317C118 40.8631 107.7 30.2495 95.0179 30.2495ZM95.0179 79.7029C88.7292 74.0827 76.2143 61.2754 76.2143 53.2317C76.2143 42.8688 84.6551 34.4281 95.0179 34.4281C105.381 34.4281 113.821 42.8688 113.821 53.2317C113.821 61.2754 101.307 74.1036 95.0179 79.7029Z" fill="white" stroke="white"/>
<path d="M95.0178 42.7856C89.2514 42.7856 84.5714 47.4656 84.5714 53.2321C84.5714 58.9985 89.2514 63.6785 95.0178 63.6785C100.784 63.6785 105.464 58.9985 105.464 53.2321C105.464 47.4656 100.784 42.7856 95.0178 42.7856ZM95.0178 59.4999C91.5705 59.4999 88.75 56.6794 88.75 53.2321C88.75 49.7848 91.5705 46.9642 95.0178 46.9642C98.4652 46.9642 101.286 49.7848 101.286 53.2321C101.286 56.6794 98.4652 59.4999 95.0178 59.4999Z" fill="white" stroke="white"/>
<path d="M67.8571 11.4462C67.8571 10.2971 66.9169 9.35693 65.7678 9.35693H53.2321C52.083 9.35693 51.1428 10.2971 51.1428 11.4462C51.1428 12.5953 52.083 13.5355 53.2321 13.5355H65.7678C66.9169 13.5355 67.8571 12.5953 67.8571 11.4462Z" fill="white" stroke="white"/>
<path d="M59.5 103.375C55.4677 103.375 52.1875 106.655 52.1875 110.687C52.1875 114.719 55.4677 118 59.5 118C63.5323 118 66.8125 114.719 66.8125 110.687C66.8125 106.655 63.5323 103.375 59.5 103.375ZM59.5 113.821C57.7659 113.821 56.3661 112.421 56.3661 110.687C56.3661 108.953 57.7659 107.553 59.5 107.553C61.2341 107.553 62.6339 108.953 62.6339 110.687C62.6339 112.421 61.2341 113.821 59.5 113.821Z" fill="white" stroke="white"/>
</svg>
