<svg width="112" height="112" viewBox="0 0 112 112" fill="none" xmlns="http://www.w3.org/2000/svg">
<path d="M109.789 60.2239L85.7891 48.2633C84.6641 47.7026 83.336 47.7026 82.211 48.2633L58.211 60.2239C56.6953 60.9793 55.8203 62.6067 56.0313 64.2848L57.1367 73.1112C59.1309 88.9965 68.1719 102.83 81.9415 111.065C82.5743 111.444 83.2891 111.633 84 111.633C84.711 111.633 85.4258 111.444 86.0586 111.065C99.8282 102.83 108.871 88.9965 110.863 73.1112L111.969 64.2848C112.18 62.6067 111.305 60.9793 109.789 60.2239ZM102.926 72.1223C101.34 84.7526 94.4883 95.849 84 102.919C73.5118 95.849 66.6602 84.7526 65.0742 72.1223L64.3203 66.0952L84 56.2877L103.68 66.0952L102.926 72.1223Z" fill="white"/>
<path d="M78.8281 76.9185C77.2656 75.3611 74.7344 75.3611 73.1719 76.9185C71.6094 78.4759 71.6094 80.9989 73.1719 82.5562L81.1719 90.53C81.9258 91.2814 82.9414 91.698 84 91.698C84.0938 91.698 84.1875 91.6941 84.2852 91.6883C85.4414 91.6065 86.5039 91.0284 87.1992 90.1037L99.1992 74.1561C100.527 72.3943 100.168 69.8947 98.3985 68.5749C96.6367 67.2511 94.125 67.6151 92.8008 69.3711L83.5664 81.6413L78.8281 76.9185Z" fill="white"/>
<path d="M48 59.8033H24C15.1777 59.8033 8.00001 52.6491 8.00001 43.8558C8.00001 36.4076 13.1712 30.1856 20.1079 28.4411C20.3797 30.3793 21.9807 31.8951 24 31.8951C26.209 31.8951 28 30.11 28 27.9082C28 16.917 36.9727 7.97378 48 7.97378C59.0274 7.97378 68.0001 16.917 68.0001 27.9082C68.0001 30.11 69.7891 31.8951 72.0001 31.8951C74.0213 31.8951 75.6207 30.3791 75.8924 28.4409C82.8304 30.1854 88.0001 36.4074 88.0001 43.8558C88.0001 46.0575 89.7891 47.8427 92.0001 47.8427C94.211 47.8427 96.0001 46.0575 96.0001 43.8558C96.0001 31.6342 86.7537 21.5419 74.8694 20.1221C71.4769 8.51424 60.7249 0 48 0C35.2737 0 24.523 8.51424 21.1306 20.1221C9.24635 21.5419 0 31.6342 0 43.8558C0 57.0468 10.7656 67.7771 24 67.7771H48C50.209 67.7771 52 65.992 52 63.7902C52 61.5885 50.209 59.8033 48 59.8033Z" fill="white"/>
</svg>
