<svg width="134" height="138" viewBox="0 0 134 138" fill="none" xmlns="http://www.w3.org/2000/svg">
<path d="M119.255 55.325C113.023 55.3412 107.584 59.5392 106.015 65.5418H76.4654V52.0238H84.6032C87.9799 52.0346 91.2263 50.6947 93.6096 48.3067L103.316 38.6247H103.311C109.337 42.1636 117.073 40.694 121.361 35.1885C125.65 29.6829 125.156 21.865 120.21 16.938C115.259 12.0106 107.404 11.5135 101.872 15.7764C96.3349 20.0392 94.8474 27.7329 98.4032 33.735L88.6749 43.4169C87.5837 44.4921 86.1124 45.0972 84.5762 45.1027H76.4602V17.1855C76.4439 16.2616 76.0585 15.381 75.3908 14.7381C74.723 14.0897 73.8273 13.7277 72.8881 13.7277H72.8555C67.5895 13.7061 62.6983 10.983 59.9241 6.52575C56.5528 1.07427 49.3869 -0.633074 43.8988 2.71135L26.7324 13.2091C24.094 14.8138 22.2048 17.4016 21.4828 20.4003C20.7662 23.3989 21.2765 26.5541 22.8997 29.18L24.3925 31.5573C26.3632 34.8099 26.4012 38.8728 24.4903 42.1632C22.6716 45.3779 19.2461 47.3661 15.5328 47.3499C11.6784 47.3337 7.98137 48.8519 5.25075 51.5588C2.52014 54.271 0.994594 57.9504 1.00001 61.7864V76.207C1.01087 84.1654 7.49828 90.6165 15.4953 90.6165C19.2574 90.6651 22.7101 92.7073 24.5396 95.9761C26.3745 99.2449 26.3147 103.238 24.3767 106.447L22.8947 108.84C21.2769 111.466 20.7721 114.621 21.4941 117.615C22.2107 120.608 24.0945 123.196 26.7328 124.806L43.9089 135.304C49.392 138.626 56.5416 136.919 59.9079 131.484C62.7145 126.999 67.6493 124.276 72.9532 124.293C73.8978 124.384 74.8262 124.006 75.4342 123.282C76.0857 122.634 76.4549 121.753 76.4549 120.835V92.8969H84.6035C86.1399 92.9023 87.6111 93.5074 88.6968 94.588L98.4251 104.248C97.1765 106.323 96.5088 108.695 96.4979 111.11C96.4274 117.399 100.624 122.942 106.715 124.606C112.806 126.27 119.261 123.639 122.421 118.199C125.586 112.758 124.668 105.875 120.184 101.45C115.7 97.0198 108.778 96.1608 103.339 99.3539L93.632 89.6935C91.2488 87.3108 88.0077 85.971 84.6256 85.9817H76.4715V72.4584H106.021C107.351 77.4885 111.444 81.33 116.574 82.3564C121.699 83.3884 126.965 81.4271 130.157 77.2994C133.344 73.1716 133.898 67.6013 131.585 62.9328C129.267 58.2647 124.489 55.3142 119.255 55.325ZM110.233 20.1256C112.98 20.1256 115.455 21.768 116.508 24.2966C117.562 26.8197 116.981 29.7265 115.037 31.6606C113.094 33.5948 110.173 34.173 107.632 33.1248C105.097 32.0821 103.441 29.6183 103.441 26.8845C103.447 23.1512 106.481 20.1256 110.233 20.1256ZM117.029 111.104C117.029 113.838 115.374 116.302 112.839 117.35C110.298 118.398 107.377 117.82 105.434 115.886C103.496 113.951 102.915 111.045 103.963 108.521C105.016 105.993 107.491 104.345 110.238 104.345C113.989 104.35 117.024 107.376 117.029 111.104ZM68.8171 92.2699C68.182 92.1618 67.5739 91.9889 66.966 91.8106H66.9605C66.1245 91.5999 65.2939 91.346 64.4851 91.0434C63.8933 90.8111 63.3179 90.5463 62.7424 90.2708V90.2762C61.9824 89.9142 61.2441 89.5144 60.5274 89.0768C59.99 88.7472 59.4688 88.396 58.9585 88.0232C58.2854 87.5262 57.6393 87.0021 57.0259 86.4402C56.5645 86.0188 56.0976 85.5974 55.6742 85.1381C55.0987 84.5222 54.5613 83.8738 54.0617 83.1931C53.6926 82.7069 53.3071 82.2314 52.976 81.7128C52.5091 80.9672 52.0857 80.1999 51.7057 79.4111C51.4451 78.887 51.1519 78.3846 50.9348 77.8389C50.5819 76.915 50.2888 75.9695 50.0553 75.0078C49.925 74.5215 49.7459 74.0839 49.6482 73.5652H49.6427C49.0184 70.5449 49.0184 67.4383 49.6427 64.4181C49.735 63.9318 49.9142 63.4942 50.0445 62.9972L50.0499 63.0026C50.2833 62.0301 50.5819 61.0792 50.9348 60.1445C51.1519 59.6096 51.4396 59.1179 51.6894 58.6046H51.6948C52.0802 57.7996 52.5091 57.0108 52.9814 56.249C53.3072 55.7465 53.6817 55.2819 54.04 54.801C54.5558 54.1094 55.1041 53.4503 55.6904 52.8181C56.1084 52.3589 56.559 51.9645 57.0041 51.5539C57.6339 50.9812 58.2908 50.4409 58.9802 49.933C59.4743 49.571 59.9846 49.2252 60.5112 48.9064H60.5058C61.2441 48.458 61.9987 48.0474 62.7804 47.68C63.3342 47.4152 63.8933 47.1613 64.4687 46.9398C65.2993 46.6264 66.1462 46.3671 67.0039 46.1564C67.6011 45.9997 68.1874 45.8322 68.8063 45.7241C69.0452 45.6809 69.2677 45.6863 69.5229 45.6485V92.3403C69.284 92.3079 69.0397 92.3131 68.8171 92.2699ZM69.5283 117.625L69.5229 117.631C63.106 118.63 57.4493 122.364 54.0298 127.858C52.6617 130.063 49.7573 130.749 47.5423 129.393L30.4037 118.906C29.3343 118.258 28.5742 117.209 28.2811 115.999C27.9934 114.789 28.1997 113.514 28.8566 112.455L30.3386 110.056C33.5904 104.707 33.7045 98.0346 30.6372 92.5773C27.57 87.1205 21.7937 83.7275 15.5124 83.6896C11.3539 83.6842 7.98804 80.329 7.98262 76.1904V61.7588C7.99348 59.7651 8.79694 57.8579 10.2193 56.4532C11.647 55.0539 13.5743 54.2759 15.5776 54.2974H15.6047C21.8749 54.2272 27.624 50.818 30.6642 45.3665C33.7043 39.9097 33.5685 33.2533 30.3113 27.9266L28.8184 25.5439V25.5385C28.1561 24.4795 27.9498 23.2044 28.243 21.9888C28.5307 20.7785 29.2962 19.7304 30.371 19.0874L47.5416 8.59507C48.6002 7.93593 49.8814 7.73061 51.0974 8.02777C52.3135 8.31412 53.3612 9.07592 54.0127 10.1348C57.4382 15.635 63.106 19.3738 69.5281 20.3678V38.5754C68.8224 38.6564 68.1383 38.7807 67.4434 38.905C67.2154 38.9482 66.982 38.9644 66.7649 39.013C65.7931 39.2183 64.8377 39.4615 63.9039 39.7532C63.7302 39.8018 63.5619 39.8775 63.3827 39.9369C62.6335 40.18 61.8898 40.4448 61.1677 40.7419C60.8637 40.8716 60.5705 41.0229 60.2665 41.1634C59.6856 41.4281 59.1156 41.6875 58.5564 41.9846C58.2253 42.1575 57.9104 42.352 57.5955 42.5411C57.0852 42.8383 56.5803 43.1246 56.0918 43.465C55.7661 43.6811 55.4512 43.9242 55.1309 44.1403C54.6695 44.4699 54.2026 44.7941 53.7846 45.1453C53.4643 45.3992 53.1657 45.664 52.8562 45.9287C52.4436 46.2907 52.0365 46.6473 51.6402 47.0255C51.3416 47.3118 51.0539 47.609 50.7716 47.9062C50.4024 48.3006 50.0333 48.6896 49.6804 49.1002C49.409 49.4135 49.1429 49.7377 48.8878 50.0565C48.5512 50.4833 48.2309 50.9102 47.916 51.3478C47.6772 51.6882 47.4546 52.0285 47.2049 52.3797C46.9117 52.839 46.6348 53.3036 46.3634 53.7629C46.1571 54.1248 45.9454 54.4868 45.75 54.8542C45.4948 55.3405 45.2614 55.8321 45.0388 56.3292C44.8651 56.702 44.6859 57.0748 44.5285 57.4638C44.3168 57.9825 44.1322 58.512 43.9422 59.0468C43.8064 59.4304 43.6707 59.8086 43.5459 60.1976C43.3776 60.7595 43.2418 61.3376 43.0844 61.9103C42.9976 62.2886 42.889 62.6559 42.8184 63.0341C42.6881 63.6825 42.6012 64.3416 42.5144 65.0062C42.471 65.3304 42.4112 65.6492 42.3787 65.9733V65.9841C42.1724 67.994 42.1724 70.0201 42.3787 72.03C42.4112 72.3595 42.471 72.6729 42.5198 73.0025C42.6012 73.6616 42.6935 74.3208 42.8184 74.9692C42.8944 75.3474 42.9975 75.7148 43.0844 76.093C43.2255 76.6711 43.3613 77.2438 43.5458 77.8057C43.6599 78.2001 43.8064 78.5783 43.9422 78.9619C44.1213 79.4914 44.3059 80.0209 44.523 80.5395C44.6805 80.9285 44.8596 81.3013 45.0333 81.6795C45.2668 82.1766 45.4948 82.6682 45.7445 83.1491C45.9399 83.5219 46.1517 83.8839 46.358 84.2459C46.6294 84.7051 46.9063 85.1698 47.194 85.629C47.4274 85.9856 47.6554 86.326 47.9052 86.6718C48.2146 87.104 48.5403 87.5362 48.8715 87.9523C49.1321 88.2818 49.3927 88.6006 49.6695 88.914C50.017 89.3246 50.3807 89.7136 50.7553 90.1026C51.043 90.3998 51.3307 90.7023 51.6293 90.9887C52.0202 91.3669 52.4219 91.7235 52.8345 92.0746C53.1439 92.3448 53.448 92.6149 53.7628 92.8743C54.1917 93.22 54.6369 93.5442 55.0875 93.863C55.4186 94.1007 55.7335 94.3222 56.0755 94.56C56.5369 94.8733 57.0527 95.1651 57.5521 95.4568C57.8833 95.6459 58.1981 95.8513 58.5402 96.0241C59.0885 96.3213 59.6531 96.5752 60.2176 96.8292C60.5325 96.9696 60.8311 97.1263 61.1459 97.2614C61.8517 97.5586 62.5736 97.8071 63.3066 98.0502C63.502 98.115 63.6866 98.1907 63.882 98.2555C64.8104 98.5473 65.7605 98.7904 66.743 98.9903C66.9765 99.0389 67.2045 99.066 67.4433 99.1038C68.1274 99.228 68.8331 99.3523 69.5117 99.4334L69.5283 117.625ZM119.256 75.758C116.509 75.758 114.033 74.1101 112.98 71.587C111.927 69.0585 112.508 66.1517 114.451 64.2229C116.389 62.2888 119.31 61.7052 121.85 62.7534C124.386 63.7961 126.041 66.2599 126.047 68.9937C126.047 72.727 123.007 75.7526 119.256 75.758Z" fill="white" stroke="white"/>
</svg>
